<?xml version="1.0" encoding="UTF-8"?>
<svg version="1.1" xmlns="http://www.w3.org/2000/svg" width="285" height="283">
<path d="M0 0 C94.05 0 188.1 0 285 0 C285 93.39 285 186.78 285 283 C190.95 283 96.9 283 0 283 C0 189.61 0 96.22 0 0 Z " fill="#90C365" transform="translate(0,0)"/>
<path d="M0 0 C18.82454884 14.38532688 32.08666188 34.33593641 35.6171875 58 C37.40263071 75.58579663 34.28124351 92.08581311 26.6171875 108 C26.19953125 108.91007812 25.781875 109.82015625 25.3515625 110.7578125 C21.40651755 118.71592041 15.82693155 124.7815344 9.6171875 131 C8.885 131.74378906 8.1528125 132.48757812 7.3984375 133.25390625 C-9.56609937 149.42718673 -32.05705066 154.76426679 -54.85546875 154.31640625 C-78.24285493 153.35550109 -97.98892254 141.27598323 -113.63671875 124.59765625 C-122.10830547 114.63400924 -127.96523158 102.57310035 -131.3828125 90 C-131.60710937 89.25363281 -131.83140625 88.50726563 -132.0625 87.73828125 C-137.08170293 68.03962865 -132.57771284 45.6850971 -122.82421875 28.20703125 C-109.93886552 7.10838128 -91.92209654 -7.03572437 -67.8828125 -13 C-44.32212985 -18.3276859 -20.00952187 -13.62350425 0 0 Z " fill="#FBFCFB" transform="translate(190.3828125,73)"/>
<path d="M0 0 C94.05 0 188.1 0 285 0 C285 93.39 285 186.78 285 283 C190.95 283 96.9 283 0 283 C0 189.61 0 96.22 0 0 Z M74 20 C72.91332031 20.5878125 71.82664062 21.175625 70.70703125 21.78125 C39.58932629 39.13459624 16.00105452 70.37965159 6.28417969 104.51464844 C-3.5112246 142.68813644 1.73024636 181.58795445 21.50439453 215.56347656 C40.63000981 246.7214329 71.49892343 270.08626655 107.11401367 278.92675781 C138.26204292 286.16292407 171.00270605 283.26138647 200 270 C200.66499512 269.7019043 201.32999023 269.40380859 202.01513672 269.09667969 C234.41413033 254.42701893 259.38923408 226.34943607 272.40625 193.4453125 C273.34640359 190.64621885 274.18782138 187.83825861 275 185 C275.51705124 183.58194858 276.03775466 182.16522229 276.5625 180.75 C280.36529893 169.08077644 281.49907951 157.2783028 281.39111328 145.09057617 C281.3749745 142.93409304 281.39110955 140.77947549 281.41015625 138.62304688 C281.42422058 129.05542668 280.21255731 120.31159657 278 111 C277.71020264 109.72825928 277.42040527 108.45651855 277.12182617 107.14624023 C268.78549634 71.52006083 244.77236949 42.87081048 214.91015625 22.9375 C172.59428236 -3.06731687 117.09934329 -4.21668 74 20 Z " fill="#F1F2EF" transform="translate(0,0)"/>
<path d="M0 0 C14.76802644 -0.55904201 26.64788407 4.14250243 39.3125 11.3671875 C44.84084356 14.40111198 49.8991888 16.50849282 56.15234375 17.421875 C57.72822266 17.65970703 57.72822266 17.65970703 59.3359375 17.90234375 C60.12097656 18.01191406 60.90601563 18.12148437 61.71484375 18.234375 C62.20984375 20.214375 62.20984375 20.214375 62.71484375 22.234375 C63.37484375 22.234375 64.03484375 22.234375 64.71484375 22.234375 C65.20984375 24.709375 65.20984375 24.709375 65.71484375 27.234375 C64.22984375 27.729375 64.22984375 27.729375 62.71484375 28.234375 C63.47796875 28.255 64.24109375 28.275625 65.02734375 28.296875 C67.71484375 29.234375 67.71484375 29.234375 69.58984375 32.484375 C71.21484375 37.90104167 71.21484375 37.90104167 69.71484375 41.234375 C68.65555939 42.28268415 67.56817242 43.30283857 66.46484375 44.3046875 C62.42438679 48.26972811 60.06475466 52.56281399 57.58984375 57.609375 C56.77578708 59.22188341 55.96068527 60.83386463 55.14453125 62.4453125 C54.74556641 63.23663574 54.34660156 64.02795898 53.93554688 64.84326172 C45.77725401 80.82372579 35.02878437 92.38245652 17.71484375 98.234375 C2.79715692 102.27941271 -12.5972816 99.13231344 -25.72265625 91.734375 C-31.79319057 88.10031364 -36.60629633 84.16914553 -41.16015625 78.734375 C-41.96195313 77.7959375 -42.76375 76.8575 -43.58984375 75.890625 C-44.14929688 75.0140625 -44.70875 74.1375 -45.28515625 73.234375 C-44.98730319 71.89266995 -44.65056104 70.5592781 -44.28515625 69.234375 C-45.18994551 66.89239638 -46.15647732 64.6864449 -47.22265625 62.421875 C-51.56968874 52.31555097 -51.87826103 42.83877538 -48.22265625 32.359375 C-42.09124465 18.3275451 -31.21156114 9.13571256 -17.28515625 3.234375 C-11.47309201 1.15760763 -6.11109962 0.43598808 0 0 Z " fill="#FAF9F8" transform="translate(137.28515625,85.765625)"/>
<path d="M0 0 C0.97324219 -0.00773437 1.94648438 -0.01546875 2.94921875 -0.0234375 C18.99736444 0.01918706 31.33399812 5.28085744 45.25 12.6875 C46.12325928 13.14181396 46.99651855 13.59612793 47.89624023 14.06420898 C52.98522179 16.84060209 56.0170804 19.09540998 58.75 24.25 C52.61563128 23.7854821 48.26401435 22.39867655 42.875 19.5 C42.17665039 19.13946533 41.47830078 18.77893066 40.75878906 18.4074707 C37.79327274 16.87428093 34.84991552 15.3040865 31.9140625 13.71484375 C17.53023613 6.10398417 -0.62764894 4.40552118 -16.375 8.8125 C-32.85620688 14.97952265 -43.39698728 24.85869897 -50.75390625 40.61328125 C-54.76622999 50.3664755 -54.68117553 63.29959096 -51.25 73.25 C-51.00507812 74.0234375 -50.76015625 74.796875 -50.5078125 75.59375 C-48.06826263 82.58856555 -44.21312936 87.80289436 -39.25 93.25 C-38.75113281 93.80429688 -38.25226563 94.35859375 -37.73828125 94.9296875 C-33.83959298 98.71581522 -29.11157072 101.05317774 -24.3125 103.5 C-23.64412109 103.8417627 -22.97574219 104.18352539 -22.28710938 104.53564453 C-9.88639639 110.60594477 6.07364454 111.77313354 19.3125 107.6875 C38.30274748 99.98288531 47.18461715 87.46768912 56.75 70.25 C57.20375 69.156875 57.6575 68.06375 58.125 66.9375 C60.95498881 60.13937472 64.43962271 53.33318531 70.75 49.25 C73.85973108 60.40402787 72.5035742 72.8856497 67.75 83.25 C66.99752148 85.39496545 66.24765333 87.54084791 65.5 89.6875 C59.03918897 106.25067009 46.69261506 120.37358899 30.75 128.25 C14.10606443 135.04627369 -5.61123716 135.96892216 -22.32421875 128.9609375 C-28.98161252 125.83689074 -34.72985737 122.09568911 -40.25 117.25 C-40.91515625 116.67894531 -41.5803125 116.10789062 -42.265625 115.51953125 C-50.62475813 107.80214259 -57.56919845 97.34457781 -60.25 86.25 C-60.42426514 85.53473145 -60.59853027 84.81946289 -60.77807617 84.08251953 C-63.87970411 70.07886791 -64.83430973 52.29554826 -58.25 39.25 C-57.82589844 38.32703125 -57.40179688 37.4040625 -56.96484375 36.453125 C-53.45158521 29.36789051 -48.80390844 23.83186436 -43.25 18.25 C-42.58484375 17.55003906 -41.9196875 16.85007812 -41.234375 16.12890625 C-30.09691695 5.2252498 -15.34283275 -0.12002216 0 0 Z " fill="#1B2C31" transform="translate(138.25,77.75)"/>
<path d="M0 0 C2.04667185 1.39920606 4.03207914 2.85890372 6.01245117 4.3503418 C6.70532227 4.8537207 7.39819336 5.35709961 8.11206055 5.87573242 C11.88095502 8.6717694 11.88095502 8.6717694 13.19995117 9.9128418 C13.19995117 10.5728418 13.19995117 11.2328418 13.19995117 11.9128418 C8.74495117 12.4078418 8.74495117 12.4078418 4.19995117 12.9128418 C4.19995117 13.5728418 4.19995117 14.2328418 4.19995117 14.9128418 C4.77165039 15.18580078 5.34334961 15.45875977 5.93237305 15.73999023 C8.22801479 16.92735705 10.33015463 18.24664683 12.48120117 19.6784668 C13.31361328 20.23211914 14.14602539 20.78577148 15.00366211 21.35620117 C15.8934375 21.95239258 16.78321289 22.54858398 17.69995117 23.1628418 C18.62324219 23.7796582 19.5465332 24.39647461 20.49780273 25.03198242 C27.8529915 29.96543217 35.12872697 35.00675425 42.36206055 40.11694336 C47.58450967 43.80428233 52.86312176 47.39300778 58.19995117 50.9128418 C57.19995117 52.9128418 57.19995117 52.9128418 54.46948242 53.9831543 C53.32866211 54.33120117 52.1878418 54.67924805 51.01245117 55.0378418 C49.88452148 55.39104492 48.7565918 55.74424805 47.59448242 56.1081543 C41.39085695 57.57874906 37.58798708 56.98390979 31.92651367 54.0690918 C30.77280273 53.48256836 29.6190918 52.89604492 28.43041992 52.29174805 C27.22846088 51.66570724 26.02663963 51.03940183 24.82495117 50.4128418 C23.60025707 49.78543305 22.3750013 49.15911937 21.14916992 48.53393555 C18.16039784 47.00424905 15.1778093 45.46363772 12.19995117 43.9128418 C13.07661596 48.44528422 14.32551919 52.78166944 15.67651367 57.1940918 C16.24015826 60.12167863 15.97555571 62.05861711 15.19995117 64.9128418 C13.43045505 65.41755376 11.65929895 65.91644865 9.88745117 66.4128418 C8.90131836 66.6912793 7.91518555 66.9697168 6.89916992 67.2565918 C4.19995117 67.9128418 4.19995117 67.9128418 1.19995117 67.9128418 C0.92115112 66.81951538 0.92115112 66.81951538 0.63671875 65.70410156 C-3.66511253 48.71474745 -3.66511253 48.71474745 -8.42504883 31.8503418 C-8.61953613 31.2004126 -8.81402344 30.5504834 -9.0144043 29.88085938 C-9.40451772 28.57945268 -9.79481641 27.2781015 -10.18530273 25.97680664 C-11.35585945 22.04674847 -12.4912707 18.10721016 -13.61254883 14.1628418 C-13.83185059 13.41123779 -14.05115234 12.65963379 -14.27709961 11.88525391 C-15.33294474 8.14292632 -16.06848871 4.80905495 -15.80004883 0.9128418 C-14.40998368 0.3768036 -13.01262233 -0.14033293 -11.61254883 -0.6496582 C-10.83524414 -0.93969727 -10.05793945 -1.22973633 -9.25708008 -1.52856445 C-5.5764292 -2.365342 -3.25614264 -1.9665812 0 0 Z " fill="#09511B" transform="translate(118.800048828125,107.087158203125)"/>
<path d="M0 0 C0.99 0.33 1.98 0.66 3 1 C3.87207031 3.21118164 3.87207031 3.21118164 4.578125 6.16015625 C4.84850586 7.25263672 5.11888672 8.34511719 5.39746094 9.47070312 C5.67879883 10.65599609 5.96013672 11.84128906 6.25 13.0625 C6.86145436 15.53332851 7.47610585 18.00336775 8.09375 20.47265625 C8.40699219 21.72836426 8.72023438 22.98407227 9.04296875 24.27783203 C10.73413567 30.85526336 12.66733122 37.35854958 14.60253906 43.86743164 C15.40750166 46.5766249 16.20624197 49.28750341 17 52 C17.28681641 52.97453125 17.57363281 53.9490625 17.86914062 54.953125 C18.28196289 56.39945313 18.28196289 56.39945313 18.703125 57.875 C19.07679199 59.17050781 19.07679199 59.17050781 19.45800781 60.4921875 C20 63 20 63 20 68 C24.62 66.68 29.24 65.36 34 64 C33.4052575 60.43154499 32.81231241 57.00309725 32 53.5 C31.19257864 50.0179954 30.56790237 46.52910758 30 43 C33.0007008 44.41518558 36.00042767 45.83242433 39 47.25 C39.83917969 47.64574219 40.67835938 48.04148438 41.54296875 48.44921875 C42.37441406 48.84238281 43.20585937 49.23554688 44.0625 49.640625 C44.89394531 50.03185547 45.72539062 50.42308594 46.58203125 50.82617188 C48.13739408 51.58123897 49.67844573 52.36693912 51.19921875 53.18945312 C56.64923575 56.1324623 60.18504752 56.74095106 66.32421875 55.125 C67.43410156 54.75375 68.54398437 54.3825 69.6875 54 C75.70833333 52 75.70833333 52 79 52 C72.39046751 59.95209378 65.74530071 67.08738856 56 71 C55.28585938 71.2990625 54.57171875 71.598125 53.8359375 71.90625 C42.10688637 76.14283034 28.8219903 75.11887626 17.640625 69.8984375 C5.65251466 63.66301098 -2.01414738 54.40574214 -6.22265625 41.52734375 C-6.47917969 40.69332031 -6.73570313 39.85929687 -7 39 C-7.4125 37.80375 -7.825 36.6075 -8.25 35.375 C-10.8864043 23.51118066 -7.13083391 11.71071882 -0.953125 1.4765625 C-0.63859375 0.98929687 -0.3240625 0.50203125 0 0 Z " fill="#F6F8F7" transform="translate(100,107)"/>
<path d="M0 0 C14.76802644 -0.55904201 26.64788407 4.14250243 39.3125 11.3671875 C44.84084356 14.40111198 49.8991888 16.50849282 56.15234375 17.421875 C57.72822266 17.65970703 57.72822266 17.65970703 59.3359375 17.90234375 C60.12097656 18.01191406 60.90601563 18.12148437 61.71484375 18.234375 C62.20984375 19.719375 62.20984375 19.719375 62.71484375 21.234375 C59.98841225 21.9347703 57.25960848 22.6199525 54.52734375 23.296875 C53.75841797 23.49603516 52.98949219 23.69519531 52.19726562 23.90039062 C44.5586645 25.76906129 44.5586645 25.76906129 40.71484375 24.234375 C39.30078125 22.66796875 39.30078125 22.66796875 38.08984375 20.671875 C31.37320335 11.15947565 20.90926475 5.73624664 9.71484375 3.234375 C-4.29580507 1.62807993 -16.51694407 4.12046171 -27.91015625 12.484375 C-38.76516201 21.24684953 -43.44720001 32.94692636 -45.64453125 46.44140625 C-46.40511772 57.49103745 -41.01396399 69.76666189 -34.28515625 78.234375 C-33.38796875 79.5646875 -33.38796875 79.5646875 -32.47265625 80.921875 C-25.23878966 88.56910539 -14.40117012 93.65583729 -3.921875 94.5078125 C9.35779473 94.84932725 21.61469923 92.59548455 31.71484375 83.234375 C32.38902344 82.69554687 33.06320313 82.15671875 33.7578125 81.6015625 C42.20905003 74.27609958 46.05808979 62.60461393 47.03125 51.68359375 C47.15306641 49.82154297 47.15306641 49.82154297 47.27734375 47.921875 C47.40302734 46.04048828 47.40302734 46.04048828 47.53125 44.12109375 C47.59183594 43.16847656 47.65242188 42.21585938 47.71484375 41.234375 C50.42035495 40.39078576 53.12864918 39.55932729 55.83984375 38.734375 C56.60039062 38.49589844 57.3609375 38.25742188 58.14453125 38.01171875 C62.46458993 36.70825277 66.14790766 35.942558 70.71484375 36.234375 C70.63183279 38.97373679 70.20100832 40.73274268 68.2722168 42.72290039 C67.67965088 43.25391357 67.08708496 43.78492676 66.4765625 44.33203125 C62.41434768 48.28237072 60.06672425 52.55879783 57.58984375 57.609375 C56.77578708 59.22188341 55.96068527 60.83386463 55.14453125 62.4453125 C54.74556641 63.23663574 54.34660156 64.02795898 53.93554688 64.84326172 C45.77725401 80.82372579 35.02878437 92.38245652 17.71484375 98.234375 C2.79715692 102.27941271 -12.5972816 99.13231344 -25.72265625 91.734375 C-31.79319057 88.10031364 -36.60629633 84.16914553 -41.16015625 78.734375 C-41.96195313 77.7959375 -42.76375 76.8575 -43.58984375 75.890625 C-44.14929688 75.0140625 -44.70875 74.1375 -45.28515625 73.234375 C-44.98730319 71.89266995 -44.65056104 70.5592781 -44.28515625 69.234375 C-45.18994551 66.89239638 -46.15647732 64.6864449 -47.22265625 62.421875 C-51.56968874 52.31555097 -51.87826103 42.83877538 -48.22265625 32.359375 C-42.09124465 18.3275451 -31.21156114 9.13571256 -17.28515625 3.234375 C-11.47309201 1.15760763 -6.11109962 0.43598808 0 0 Z " fill="#243338" transform="translate(137.28515625,85.765625)"/>
<path d="M0 0 C6.19305988 3.61905459 12.7123535 5.82569452 19.74609375 7.125 C19.74609375 7.785 19.74609375 8.445 19.74609375 9.125 C9.98335207 9.4559404 3.10522031 5.60520003 -5.23291016 1.16943359 C-22.44381976 -7.72501812 -38.02654888 -10.54153774 -56.95703125 -5.09765625 C-70.36345484 -0.73495137 -80.28273954 7.92461631 -86.69140625 20.4375 C-91.07759694 29.58037706 -92.20783057 39.80545017 -88.9140625 49.52734375 C-87.87825914 52.3090905 -86.7360144 55.03413835 -85.56640625 57.76171875 C-84.25390625 61.125 -84.25390625 61.125 -84.25390625 65.125 C-76.99590447 77.22842755 -64.99766987 83.7671129 -52.0234375 88.23828125 C-37.51537237 91.65105927 -22.18745358 89.4843206 -9.44140625 81.875 C1.15765463 74.63436248 7.68128653 65.7915508 12.91381836 54.21777344 C17.31440407 44.4912496 21.59448786 36.22607059 30.74609375 30.125 C29.39727544 33.0217479 27.84364514 35.42837375 25.87109375 37.9375 C21.98631971 43.04158269 19.12348429 48.18613064 16.640625 54.12109375 C8.76491285 71.76406463 -2.5484435 83.55975718 -20.25390625 91.125 C-26.14781063 93.25101551 -31.50662874 93.42774864 -37.69140625 93.375 C-38.59439453 93.38273437 -39.49738281 93.39046875 -40.42773438 93.3984375 C-55.32103418 93.35529977 -69.50792425 86.89091597 -80.140625 76.47265625 C-91.05820427 64.34425488 -94.73344168 52.1932955 -94.46484375 36.09765625 C-94.192661 30.97154773 -93.29576949 26.81660944 -91.25390625 22.125 C-90.87492187 21.24585938 -90.4959375 20.36671875 -90.10546875 19.4609375 C-83.1286605 5.14436565 -70.12858867 -4.72607147 -55.25390625 -9.875 C-35.47125318 -14.35243479 -17.05490337 -10.11745843 0 0 Z " fill="#E9EAEB" transform="translate(178.25390625,94.875)"/>
<path d="M0 0 C-0.08301096 2.73936179 -0.51383543 4.49836768 -2.44262695 6.48852539 C-3.03519287 7.01953857 -3.62775879 7.55055176 -4.23828125 8.09765625 C-8.30049607 12.04799572 -10.6481195 16.32442283 -13.125 21.375 C-13.93905667 22.98750841 -14.75415848 24.59948963 -15.5703125 26.2109375 C-15.96927734 27.00226074 -16.36824219 27.79358398 -16.77929688 28.60888672 C-23.99994557 42.75269338 -33.95587413 55.07620429 -49.1171875 61.1328125 C-57.87058844 63.08779742 -67.08550436 62.36822713 -76 62 C-75.67 61.34 -75.34 60.68 -75 60 C-73.09375 59.796875 -73.09375 59.796875 -70.5 59.75 C-59.32707372 58.91750745 -47.21339128 54.75814557 -39 47 C-38.32839844 46.46246094 -37.65679687 45.92492187 -36.96484375 45.37109375 C-28.50615237 38.05076832 -24.65683461 26.37114394 -23.68359375 15.44921875 C-23.60238281 14.20785156 -23.52117187 12.96648437 -23.4375 11.6875 C-23.35371094 10.43324219 -23.26992187 9.17898437 -23.18359375 7.88671875 C-23.12300781 6.93410156 -23.06242187 5.98148437 -23 5 C-20.2944888 4.15641076 -17.58619457 3.32495229 -14.875 2.5 C-14.11445313 2.26152344 -13.35390625 2.02304688 -12.5703125 1.77734375 C-8.25025382 0.47387777 -4.56693609 -0.291817 0 0 Z " fill="#1A2A2F" transform="translate(208,122)"/>
<path d="M0 0 C15.79083232 -0.71058745 15.79083232 -0.71058745 21.71484375 4.51171875 C27.39406496 10.69082251 29.56718886 16.91428016 29.37109375 25.265625 C28.80034029 29.47117681 27.18264799 32.38498927 25 36 C20.90002671 36 19.61837574 34.34864645 16.5 31.75 C15.5409375 30.96109375 14.581875 30.1721875 13.59375 29.359375 C11.37996277 27.34562879 9.67275928 25.46392921 8 23 C11.61973402 21.68373308 14.09567131 21 18 21 C13.46123114 15.59375313 8.64984204 10.56337861 3.55737305 5.68237305 C2.33529203 4.49104158 1.16292374 3.24914413 0 2 C0 1.34 0 0.68 0 0 Z " fill="#FF3F15" transform="translate(136,99)"/>
<path d="M0 0 C6.19305988 3.61905459 12.7123535 5.82569452 19.74609375 7.125 C19.74609375 7.785 19.74609375 8.445 19.74609375 9.125 C9.98335207 9.4559404 3.10522031 5.60520003 -5.23291016 1.16943359 C-22.44381976 -7.72501812 -38.02654888 -10.54153774 -56.95703125 -5.09765625 C-70.36345484 -0.73495137 -80.28273954 7.92461631 -86.69140625 20.4375 C-89.49971161 26.29132453 -90.39589336 30.88708684 -90.81640625 37.375 C-90.94208984 39.26992187 -90.94208984 39.26992187 -91.0703125 41.203125 C-91.13089844 42.16734375 -91.19148438 43.1315625 -91.25390625 44.125 C-91.58390625 44.125 -91.91390625 44.125 -92.25390625 44.125 C-92.48177083 42.171875 -92.70963542 40.21875 -92.9375 38.265625 C-93.19953118 36.12881794 -93.19953118 36.12881794 -93.85546875 34.14453125 C-95.15222343 27.57176489 -90.33579343 19.43253951 -87.16015625 13.921875 C-79.26371072 2.33610655 -66.47385945 -7.33557272 -52.61328125 -10.47265625 C-32.92610281 -12.83053925 -17.03355081 -10.10479148 0 0 Z " fill="#DDDFE0" transform="translate(178.25390625,94.875)"/>
<path d="M0 0 C5.25422697 0.53432817 8.93579813 2.31960871 13.4375 4.875 C20.23348827 8.67296274 26.62294996 12.04604887 34.4375 13.1875 C35.48808594 13.34605469 36.53867188 13.50460938 37.62109375 13.66796875 C38.40613281 13.77753906 39.19117188 13.88710937 40 14 C40.495 15.485 40.495 15.485 41 17 C38.2735685 17.7003953 35.54476473 18.3855775 32.8125 19.0625 C31.65911133 19.36124023 31.65911133 19.36124023 30.48242188 19.66601562 C22.84382075 21.53468629 22.84382075 21.53468629 19 20 C17.5859375 18.43359375 17.5859375 18.43359375 16.375 16.4375 C12.34576185 10.5940499 6.33423664 6.16711832 0 3 C0 2.01 0 1.02 0 0 Z " fill="#18282D" transform="translate(159,90)"/>
<path d="M0 0 C1.9375 1.25 1.9375 1.25 3 3 C3 4.32 3 5.64 3 7 C4.32 7.33 5.64 7.66 7 8 C5.52934075 11.58522876 3.59934458 13.44386096 0.5625 15.8125 C-0.21996094 16.43769531 -1.00242188 17.06289062 -1.80859375 17.70703125 C-2.53175781 18.13371094 -3.25492188 18.56039062 -4 19 C-4.99 18.67 -5.98 18.34 -7 18 C-7 17.01 -7 16.02 -7 15 C-7.804375 14.566875 -8.60875 14.13375 -9.4375 13.6875 C-12 12 -12 12 -13.1875 9.1875 C-12.98579388 5.75849595 -12.6786652 5.09571147 -10.5 2.625 C-7.10470824 -0.39039898 -4.52789011 -0.768887 0 0 Z " fill="#F7FBF4" transform="translate(232,68)"/>
<path d="M0 0 C3.41264811 0.48752116 4.46973941 1.75789786 6.625 4.375 C8.02957737 7.18415474 7.87395157 9.26310534 7.625 12.375 C6.5625 14.75 6.5625 14.75 4.625 16.375 C1.25 16.5625 1.25 16.5625 -2.375 16.375 C-4.05057379 16.66020405 -5.72317245 16.97455696 -7.375 17.375 C-8.63805335 12.30023206 -9.64536084 7.64703646 -9.375 2.375 C-8.59125 2.41625 -7.8075 2.4575 -7 2.5 C-3.64694174 2.34033056 -3.22816135 0.50970969 0 0 Z " fill="#F6FAF3" transform="translate(163.375,240.625)"/>
<path d="M0 0 C10.55808656 3.07517084 10.55808656 3.07517084 15 5 C14 8 14 8 12 9 C12.061875 9.928125 12.12375 10.85625 12.1875 11.8125 C12 15 12 15 10.9375 16.875 C7.78884197 18.70325305 5.56860824 18.48387908 2 18 C-0.83421253 16.63448005 -1.8638732 15.50994899 -4 13 C-4 8.94797024 -3.90157384 6.90157384 -1 4 C-0.3574765 1.93125966 -0.3574765 1.93125966 0 0 Z " fill="#F8FBF6" transform="translate(35,99)"/>
<path d="M0 0 C3.43803208 1.93389305 4.69276462 2.9601264 5.8125 6.75 C5.874375 7.4925 5.93625 8.235 6 9 C4.35 9 2.7 9 1 9 C0.67 8.01 0.34 7.02 0 6 C-2.31 5.67 -4.62 5.34 -7 5 C-8.7089129 6.5787681 -8.7089129 6.5787681 -10 9 C-9.95350297 13.3457684 -9.95350297 13.3457684 -8 17 C-5.04182893 17.25005386 -5.04182893 17.25005386 -2 17 C-1.34 16.34 -0.68 15.68 0 15 C2.625 14.875 2.625 14.875 5 15 C3.75023244 18.65316671 3.32901247 19.78065836 0 22 C-4.77499248 22.86404626 -8.23628459 22.38855696 -12.5625 20.1875 C-15.25364672 17.57131558 -15.47122277 15.17577184 -15.625 11.5 C-15.42304595 7.75375237 -15.09315502 6.15525837 -13.125 2.875 C-9.09281474 -0.68281052 -5.19886989 -0.64649159 0 0 Z " fill="#F7FBF4" transform="translate(162,24)"/>
<path d="M0 0 C2.88381579 2.58803981 3.8491179 4.19529549 4.5625 8 C3.79301948 12.10389613 2.32878632 13.53959272 -1 16 C-4 16.625 -4 16.625 -7 16 C-9.8125 13.5625 -9.8125 13.5625 -12 11 C-12.33 10.67 -12.66 10.34 -13 10 C-12.84539151 5.90287495 -12.5631476 3.66252659 -9.875 0.5 C-6.02851705 -1.50686067 -4.11453459 -1.27176524 0 0 Z " fill="#F5FAF2" transform="translate(219,218)"/>
<path d="M0 0 C2.9375 2.1875 2.9375 2.1875 5 5 C5.16871697 9.0492072 4.26292383 10.65444297 1.8125 13.875 C-1 16 -1 16 -4 16.625 C-8.0743356 15.77618008 -9.54405875 14.32274404 -12 11 C-12.7446324 7.02862719 -12.37266878 5.55900317 -10.125 2.1875 C-6.62233591 -1.41818362 -4.79659432 -1.31671217 0 0 Z " fill="#F6FAF2" transform="translate(185,36)"/>
<path d="M0 0 C2.82924628 2.06179891 4.67194613 3.67505174 5.5703125 7.12890625 C5.75824239 11.14926346 5.31558287 13.38212647 3.1796875 16.84375 C0.31290322 19.54671803 -1.18693936 20.8740589 -5.1953125 21.03125 C-6.5875 20.969375 -6.5875 20.969375 -8.0078125 20.90625 C-8.0078125 19.58625 -8.0078125 18.26625 -8.0078125 16.90625 C-6.8734375 16.535 -5.7390625 16.16375 -4.5703125 15.78125 C-2.62855248 15.03059955 -2.62855248 15.03059955 -1.0078125 13.90625 C-0.13318316 11.04912749 -0.0078125 8.85747196 -0.0078125 5.90625 C-3.48526449 4.31655766 -6.17223876 3.49159338 -10.0078125 3.90625 C-10.6678125 4.56625 -11.3278125 5.22625 -12.0078125 5.90625 C-12.0078125 6.875625 -12.0078125 7.845 -12.0078125 8.84375 C-12.0078125 11.90625 -12.0078125 11.90625 -14.0078125 14.90625 C-14.6678125 14.90625 -15.3278125 14.90625 -16.0078125 14.90625 C-17.61088174 11.70011153 -17.49521711 8.38485003 -17.0078125 4.90625 C-12.83860557 -1.94316139 -7.39850077 -4.0303117 0 0 Z " fill="#F7FBF4" transform="translate(240.0078125,200.09375)"/>
<path d="M0 0 C0 3.71488123 -0.91663018 4.44603459 -3.25 7.25 C-7.50031165 12.54575121 -10.4757491 17.71007939 -13.10546875 23.99609375 C-20.8489665 41.34288129 -32.26263265 53.92105069 -50 61 C-53.93359375 61.6953125 -53.93359375 61.6953125 -57 62 C-57.495 60.515 -57.495 60.515 -58 59 C-57.18917969 58.79246094 -56.37835938 58.58492187 -55.54296875 58.37109375 C-41.09049305 54.3499742 -29.79525021 46.63236113 -21.6171875 33.9453125 C-19.84928226 30.72550441 -18.34475834 27.43802343 -16.83203125 24.09277344 C-12.8787453 15.35304315 -9.11318792 8.60188054 -2 2 C-1.34 1.34 -0.68 0.68 0 0 Z " fill="#D5D6D9" transform="translate(208,125)"/>
<path d="M0 0 C3.36344489 2.48602449 4.80057749 3.91425523 5.5625 8.0625 C5 11 5 11 3.5 13.3125 C-0.17500111 15.79312575 -2.54208694 16 -7 16 C-10.34945256 13.93879842 -10.90352841 12.2947743 -12.125 8.5625 C-12 5 -12 5 -9.4375 2.0625 C-6.22119905 -0.17848747 -3.92927383 -0.83601571 0 0 Z " fill="#F7FAF4" transform="translate(39,157)"/>
<path d="M0 0 C2.6875 -0.3125 2.6875 -0.3125 6 0 C9.84380115 3.24587653 11.83783616 5.28106334 12.3125 10.3125 C11.9475203 14.61926041 11.06016472 16.02483986 8 19 C4.9380626 21.29645305 1.74863552 21.41895884 -2.03515625 21.3203125 C-5.20305433 20.80387583 -6.83954935 19.28753598 -9 17 C-11.27993222 13.74295397 -11.40797113 10.91652281 -11 7 C-9.625 4.625 -9.625 4.625 -8 3 C-7.34 3 -6.68 3 -6 3 C-5.04546782 5.75753742 -5.02742044 7.13436018 -5.625 10.0625 C-6.2723831 12.92188096 -6.2723831 12.92188096 -5 14.9375 C-1.79576037 16.6397523 0.57534365 15.85616409 4 15 C6.10938785 13.97578739 6.10938785 13.97578739 7 12 C7.16448881 8.90351124 7.16448881 8.90351124 6 6 C3.52869082 4.84478498 3.52869082 4.84478498 1 4 C0.1875 1.875 0.1875 1.875 0 0 Z " fill="#F9FBF6" transform="translate(40,179)"/>
<path d="M0 0 C1.03572896 1.74122549 2.0531252 3.49336595 3.0625 5.25 C3.63097656 6.22453125 4.19945312 7.1990625 4.78515625 8.203125 C6 11 6 11 5.68359375 13.359375 C5.45800781 13.90078125 5.23242188 14.4421875 5 15 C4.401875 15.103125 3.80375 15.20625 3.1875 15.3125 C0.92116717 15.82484936 0.92116717 15.82484936 -0.4375 17.5625 C-2 19 -2 19 -4.39453125 19.3203125 C-7 19 -7 19 -8.765625 17.42578125 C-13.72738762 10.36179816 -13.72738762 10.36179816 -14 6 C-12.68 5.67 -11.36 5.34 -10 5 C-6 11.75 -6 11.75 -6 14 C-4.35 13.67 -2.7 13.34 -1 13 C-1.56888837 9.0177814 -2.89001415 6.39432507 -5 3 C-5 2.34 -5 1.68 -5 1 C-3 0 -3 0 0 0 Z " fill="#F7FAF3" transform="translate(200,228)"/>
<path d="M0 0 C1.17949219 0.01804688 2.35898437 0.03609375 3.57421875 0.0546875 C4.92966797 0.08949219 4.92966797 0.08949219 6.3125 0.125 C6.3125 1.775 6.3125 3.425 6.3125 5.125 C0.3725 5.62 0.3725 5.62 -5.6875 6.125 C-5.6875 7.445 -5.6875 8.765 -5.6875 10.125 C-2.0575 10.455 1.5725 10.785 5.3125 11.125 C5.3125 12.445 5.3125 13.765 5.3125 15.125 C0.0325 15.125 -5.2475 15.125 -10.6875 15.125 C-10.6875 13.805 -10.6875 12.485 -10.6875 11.125 C-10.0275 10.795 -9.3675 10.465 -8.6875 10.125 C-9.3475 9.465 -10.0075 8.805 -10.6875 8.125 C-10.5 5.125 -10.5 5.125 -9.6875 2.125 C-6.05554504 -0.29630331 -4.30400652 -0.08522785 0 0 Z " fill="#F0F6EB" transform="translate(35.6875,134.875)"/>
<path d="M0 0 C1.76923828 0.04060547 1.76923828 0.04060547 3.57421875 0.08203125 C4.47785156 0.11683594 5.38148438 0.15164062 6.3125 0.1875 C6.3125 1.8375 6.3125 3.4875 6.3125 5.1875 C0.3725 5.6825 0.3725 5.6825 -5.6875 6.1875 C-5.3575 7.5075 -5.0275 8.8275 -4.6875 10.1875 C-1.0575 10.5175 2.5725 10.8475 6.3125 11.1875 C6.3125 12.5075 6.3125 13.8275 6.3125 15.1875 C-1.6075 15.6825 -1.6075 15.6825 -9.6875 16.1875 C-9.6875 14.8675 -9.6875 13.5475 -9.6875 12.1875 C-9.0275 11.8575 -8.3675 11.5275 -7.6875 11.1875 C-8.3475 10.8575 -9.0075 10.5275 -9.6875 10.1875 C-10.05136139 3.75928218 -10.05136139 3.75928218 -8.59375 1.46875 C-5.74614657 -0.44521296 -3.38378509 -0.10050847 0 0 Z " fill="#F2F8ED" transform="translate(254.6875,128.8125)"/>
<path d="M0 0 C1.32 0.33 2.64 0.66 4 1 C4 1.66 4 2.32 4 3 C4.928125 2.938125 5.85625 2.87625 6.8125 2.8125 C10 3 10 3 11.9375 4.125 C13 6 13 6 12.9375 8.6875 C11.78416782 12.76260704 10.02246813 16.29370957 8 20 C6.68 19.67 5.36 19.34 4 19 C4.43525222 16.38848668 4.85031798 14.27441704 6.125 11.9375 C7.20863003 9.5380335 6.8677564 8.42971792 6 6 C1.33845958 7.49835228 0.13389249 10.88463591 -2 15 C-3.32 14.67 -4.64 14.34 -6 14 C-4.50829734 9.0276578 -2.39542583 4.58154261 0 0 Z " fill="#F7FAF4" transform="translate(92,231)"/>
<path d="M0 0 C4.24404412 3.88026891 7.10917547 8.04254346 10 13 C8.576875 13.928125 8.576875 13.928125 7.125 14.875 C4.05554891 16.81970969 4.05554891 16.81970969 2 19 C-0.75 19.5625 -0.75 19.5625 -4 19 C-7.58369326 15.91498103 -10.00400629 12.25560923 -12 8 C-10.68 7.34 -9.36 6.68 -8 6 C-7.61328125 6.5775 -7.2265625 7.155 -6.828125 7.75 C-6.04695313 8.86375 -6.04695313 8.86375 -5.25 10 C-4.73953125 10.7425 -4.2290625 11.485 -3.703125 12.25 C-3.14109375 12.8275 -2.5790625 13.405 -2 14 C-0.68 14 0.64 14 2 14 C1.52389341 9.00088076 -0.03162219 6.02167317 -3 2 C-2.01 1.34 -1.02 0.68 0 0 Z " fill="#F8FBF6" transform="translate(81,46)"/>
<path d="M0 0 C1.32 0.33 2.64 0.66 4 1 C4 1.66 4 2.32 4 3 C5.4540625 3.4640625 5.4540625 3.4640625 6.9375 3.9375 C10 5 10 5 11 6 C11.81350492 10.64859955 10.52703515 13.10525815 8 16.875 C7.01308529 18.25942203 6.01720167 19.63767634 5 21 C3.68 20.34 2.36 19.68 1 19 C1.54140625 18.20335937 1.54140625 18.20335937 2.09375 17.390625 C2.78984375 16.33101562 2.78984375 16.33101562 3.5 15.25 C3.9640625 14.55390625 4.428125 13.8578125 4.90625 13.140625 C6.30333102 10.80698194 6.30333102 10.80698194 6 7 C3.66461093 6.96127313 3.66461093 6.96127313 1 8 C-0.93157957 10.1717219 -2.48201687 12.52601047 -4 15 C-5.32 14.34 -6.64 13.68 -8 13 C-7.23302204 11.58124235 -6.46123222 10.16508548 -5.6875 8.75 C-5.04361328 7.56664062 -5.04361328 7.56664062 -4.38671875 6.359375 C-3.0603786 4.10272866 -1.61115776 2.06001403 0 0 Z " fill="#F8FBF6" transform="translate(199,43)"/>
<path d="M0 0 C-0.33 1.65 -0.66 3.3 -1 5 C-1.66 5 -2.32 5 -3 5 C-3 6.32 -3 7.64 -3 9 C-2.01 9 -1.02 9 0 9 C0.28875 8.05125 0.5775 7.1025 0.875 6.125 C2 3 2 3 4 1 C6.5 1.1875 6.5 1.1875 9 2 C11 5 11 5 10.8125 8.5 C9.73536896 13.13994911 9.73536896 13.13994911 7 15 C6.34 15 5.68 15 5 15 C5 13.35 5 11.7 5 10 C5.66 9.67 6.32 9.34 7 9 C7 8.34 7 7.68 7 7 C6.34 7 5.68 7 5 7 C4.2884375 8.4540625 4.2884375 8.4540625 3.5625 9.9375 C2 13 2 13 1 14 C-1.4375 14.25 -1.4375 14.25 -4 14 C-6.48038907 10.2794164 -6.46337203 8.40203429 -6 4 C-2.92307692 0 -2.92307692 0 0 0 Z " fill="#F5FAF2" transform="translate(250,150)"/>
<path d="M0 0 C0.66 0.99 1.32 1.98 2 3 C-0.70879335 4.35439668 -3.00933268 4.06501451 -6 4 C-6 4.99 -6 5.98 -6 7 C-5.37351562 6.90460937 -4.74703125 6.80921875 -4.1015625 6.7109375 C-3.28429687 6.60007812 -2.46703125 6.48921875 -1.625 6.375 C-0.40683594 6.20097656 -0.40683594 6.20097656 0.8359375 6.0234375 C1.55007812 6.01570313 2.26421875 6.00796875 3 6 C5 8 5 8 5.3125 10.4375 C5 13 5 13 3.9375 14.75 C0.99677779 16.64724014 -1.5400239 16.87642942 -5 17 C-6.9375 15.5625 -6.9375 15.5625 -8 14 C-7 13 -7 13 -3.5 12.5625 C-1.7675 12.2840625 -1.7675 12.2840625 0 12 C0.33 11.34 0.66 10.68 1 10 C0.38511719 10.10699219 -0.22976562 10.21398438 -0.86328125 10.32421875 C-1.67152344 10.44410156 -2.47976562 10.56398438 -3.3125 10.6875 C-4.11300781 10.81511719 -4.91351563 10.94273438 -5.73828125 11.07421875 C-8 11 -8 11 -9.79296875 9.640625 C-11 8 -11 8 -11 6.0625 C-8.77420082 1.4717892 -5.07941185 -0.96096981 0 0 Z " fill="#F4F9F1" transform="translate(101,38)"/>
<path d="M0 0 C3.5625 1 3.5625 1 6.0625 3.3125 C7.5625 6 7.5625 6 7.3125 8.3125 C7.065 8.869375 6.8175 9.42625 6.5625 10 C5.2425 9.34 3.9225 8.68 2.5625 8 C2.5625 6.68 2.5625 5.36 2.5625 4 C1.2425 4 -0.0775 4 -1.4375 4 C-0.7775 4.886875 -0.1175 5.77375 0.5625 6.6875 C2.54670124 9.9738333 3.09305241 11.28613312 2.5625 15 C1.5625 16 1.5625 16 -1.75 16.3125 C-5.4375 16 -5.4375 16 -7.875 14.25 C-9.4375 12 -9.4375 12 -9.4375 8 C-7.5 8.3125 -7.5 8.3125 -5.4375 9 C-5.1075 9.99 -4.7775 10.98 -4.4375 12 C-3.4475 12.33 -2.4575 12.66 -1.4375 13 C-2.076875 12.0925 -2.71625 11.185 -3.375 10.25 C-6.34910221 5.56353591 -6.34910221 5.56353591 -6.4375 3 C-4.71719385 -0.11805489 -3.56023344 0 0 0 Z " fill="#F7FAF4" transform="translate(79.4375,222)"/>
<path d="M0 0 C4.33371848 0.9032809 8.07784157 2.84747065 12.05078125 4.74609375 C19.58544972 7.94957531 26.30118711 8.39322373 34.4375 8.625 C36.1071582 8.68300781 36.1071582 8.68300781 37.81054688 8.7421875 C40.54020476 8.83590966 43.26986563 8.92162294 46 9 C45.01 9.33 44.02 9.66 43 10 C43 10.66 43 11.32 43 12 C39.66674246 12.05874776 36.33362062 12.09384467 33 12.125 C32.06542969 12.14175781 31.13085938 12.15851563 30.16796875 12.17578125 C21.28640458 12.23789009 14.35461442 10.52142736 6.5 6.375 C5.86835937 6.05015625 5.23671875 5.7253125 4.5859375 5.390625 C3.0534506 4.60116205 1.5261447 3.80165466 0 3 C0 2.01 0 1.02 0 0 Z " fill="#E4E6E7" transform="translate(108,176)"/>
<path d="M0 0 C1.875 0.46484375 1.875 0.46484375 3.875 1.58984375 C5.52060007 4.67534387 5.28840618 7.0394783 4.875 10.46484375 C3.375 13.40234375 3.375 13.40234375 0.875 15.46484375 C-2.08038235 16.0892203 -4.0309768 15.85773558 -7.125 15.46484375 C-9.125 14.15234375 -9.125 14.15234375 -10.125 12.46484375 C-10.125 11.47484375 -10.125 10.48484375 -10.125 9.46484375 C-8.805 9.46484375 -7.485 9.46484375 -6.125 9.46484375 C-5.795 10.12484375 -5.465 10.78484375 -5.125 11.46484375 C-3.805 11.46484375 -2.485 11.46484375 -1.125 11.46484375 C-1.125 9.15484375 -1.125 6.84484375 -1.125 4.46484375 C-5.58 4.95984375 -5.58 4.95984375 -10.125 5.46484375 C-8.52605606 -0.930932 -5.67714048 -0.92879688 0 0 Z " fill="#F7FAF4" transform="translate(143.125,243.53515625)"/>
<path d="M0 0 C2.5 1.625 2.5 1.625 4 4 C4.4375 7.0625 4.4375 7.0625 4 10 C2.5 11.875 2.5 11.875 1 13 C-0.76462683 9.91190305 -1 8.76687864 -1 5 C-3.31 5.33 -5.62 5.66 -8 6 C-8 7.32 -8 8.64 -8 10 C-6.68 10.33 -5.36 10.66 -4 11 C-3.67 12.32 -3.34 13.64 -3 15 C-5.75 15.3125 -5.75 15.3125 -9 15 C-11.4375 12.9375 -11.4375 12.9375 -13 10 C-13 6.2544684 -12.81498619 4.01058287 -10.4375 1.0625 C-6.90980637 -0.47521261 -3.78396047 -0.69010754 0 0 Z " fill="#F7FBF4" transform="translate(245,87)"/>
<path d="M0 0 C0.721875 0.103125 1.44375 0.20625 2.1875 0.3125 C1.375 2.25 1.375 2.25 0.1875 4.3125 C-0.8025 4.6425 -1.7925 4.9725 -2.8125 5.3125 C-2.4825 6.9625 -2.1525 8.6125 -1.8125 10.3125 C-0.1625 10.6425 1.4875 10.9725 3.1875 11.3125 C3.31125 10.735 3.435 10.1575 3.5625 9.5625 C4.19398824 7.28914233 5.07608191 5.3871471 6.1875 3.3125 C7.75 4.4375 7.75 4.4375 9.1875 6.3125 C9.11207105 9.85766066 8.55736838 11.7919445 6.5 14.6875 C3.48882786 16.8034588 1.80237724 16.76435965 -1.8125 16.3125 C-5.15515205 15.10543121 -5.75954566 14.39193151 -7.8125 11.3125 C-8.25 8.4375 -8.25 8.4375 -7.8125 5.3125 C-5.37508357 2.10903841 -4.07219987 0.45246665 0 0 Z " fill="#F8FBF6" transform="translate(48.8125,80.6875)"/>
<path d="M0 0 C2.50383287 3.12979109 3.4380235 6.06616447 4 10 C5.32 10 6.64 10 8 10 C7.67 12.64 7.34 15.28 7 18 C5.68 18.33 4.36 18.66 3 19 C2.67 18.01 2.34 17.02 2 16 C0.35 15.67 -1.3 15.34 -3 15 C-2.67 14.01 -2.34 13.02 -2 12 C-1.34 12 -0.68 12 0 12 C-0.99 9.69 -1.98 7.38 -3 5 C-3.99 5 -4.98 5 -6 5 C-6.33 3.68 -6.66 2.36 -7 1 C-4.39722303 -0.30138849 -2.88185107 -0.4217343 0 0 Z " fill="#F5F9F1" transform="translate(179,238)"/>
<path d="M0 0 C1.32 0.66 2.64 1.32 4 2 C3.67 2.99 3.34 3.98 3 5 C2.34 5 1.68 5 1 5 C1.350625 5.61875 1.70125 6.2375 2.0625 6.875 C2.371875 7.57625 2.68125 8.2775 3 9 C2.67 9.66 2.34 10.32 2 11 C1.13375 10.62875 1.13375 10.62875 0.25 10.25 C-2.1694203 9.72489921 -2.1694203 9.72489921 -4.3125 11.6875 C-6.27510079 13.8305797 -6.27510079 13.8305797 -5.75 16.25 C-5.5025 16.8275 -5.255 17.405 -5 18 C-5.99 18.66 -6.98 19.32 -8 20 C-10.0625 18.25 -10.0625 18.25 -12 16 C-11.66563669 12.60063968 -10.18346806 10.73490083 -7.9375 8.25 C-7.11572266 7.32960938 -7.11572266 7.32960938 -6.27734375 6.390625 C-5.85582031 5.93171875 -5.43429688 5.4728125 -5 5 C-5.66 5 -6.32 5 -7 5 C-6.67 4.01 -6.34 3.02 -6 2 C-4.7934375 1.7834375 -4.7934375 1.7834375 -3.5625 1.5625 C-1.07896294 1.25864751 -1.07896294 1.25864751 0 0 Z " fill="#F7FBF4" transform="translate(222,53)"/>
<path d="M0 0 C0.66 0 1.32 0 2 0 C2 0.66 2 1.32 2 2 C3.65 1.67 5.3 1.34 7 1 C7.33 2.65 7.66 4.3 8 6 C6.68 6 5.36 6 4 6 C4 7.32 4 8.64 4 10 C3.01 10 2.02 10 1 10 C1 9.34 1 8.68 1 8 C-1.31 8.66 -3.62 9.32 -6 10 C-6.33 11.32 -6.66 12.64 -7 14 C-8.32 14 -9.64 14 -11 14 C-11.625 11.125 -11.625 11.125 -12 8 C-9.73030256 5.73030256 -8.02604513 5.00868171 -5 4 C-3.68 4 -2.36 4 -1 4 C-0.67 2.68 -0.34 1.36 0 0 Z " fill="#F6FAF3" transform="translate(252,103)"/>
<path d="M0 0 C1.2065625 0.2475 1.2065625 0.2475 2.4375 0.5 C4.97658116 1.26597109 4.97658116 1.26597109 7 0 C7.66 0.33 8.32 0.66 9 1 C8.9175 1.763125 8.835 2.52625 8.75 3.3125 C8.73265199 6.09676112 8.73265199 6.09676112 10.75 7.875 C12.92335329 9.22699219 12.92335329 9.22699219 15.25 8.6875 C15.8275 8.460625 16.405 8.23375 17 8 C17.99 9.485 17.99 9.485 19 11 C17.68 12.32 16.36 13.64 15 15 C10.89041233 13.54955729 7.56741255 11.48889248 4 9 C3.01 9.495 3.01 9.495 2 10 C1.34 9.67 0.68 9.34 0 9 C-0.44921875 7.1875 -0.44921875 7.1875 -0.6875 5 C-0.77386719 4.278125 -0.86023437 3.55625 -0.94921875 2.8125 C-0.96597656 2.214375 -0.98273437 1.61625 -1 1 C-0.67 0.67 -0.34 0.34 0 0 Z " fill="#F7FAF4" transform="translate(50,66)"/>
<path d="M0 0 C5.875 0.875 5.875 0.875 7 2 C6.90997602 4.02408755 6.75358962 6.04544287 6.5625 8.0625 C6.46066406 9.16722656 6.35882813 10.27195313 6.25390625 11.41015625 C6.17011719 12.26480469 6.08632812 13.11945313 6 14 C6.66 14 7.32 14 8 14 C8 14.99 8 15.98 8 17 C6.68 17 5.36 17 4 17 C4 17.99 4 18.98 4 20 C2.68 20 1.36 20 0 20 C0 18.35 0 16.7 0 15 C-0.99 15 -1.98 15 -3 15 C-3 14.01 -3 13.02 -3 12 C-1.68 12 -0.36 12 1 12 C1.19814261 5.91591528 1.19814261 5.91591528 0 0 Z " fill="#F6FAF3" transform="translate(119,241)"/>
<path d="M0 0 C0.99 0 1.98 0 3 0 C3 1.32 3 2.64 3 4 C4.41655793 4.0272415 5.83327045 4.04650467 7.25 4.0625 C8.03890625 4.07410156 8.8278125 4.08570312 9.640625 4.09765625 C11.90691002 4.00385306 13.8288895 3.63241063 16 3 C15.125 7.875 15.125 7.875 14 9 C12.5444063 9.09858603 11.08392081 9.12972143 9.625 9.125 C8.83351563 9.12757813 8.04203125 9.13015625 7.2265625 9.1328125 C5 9 5 9 2 8 C2 8.99 2 9.98 2 11 C1.01 11 0.02 11 -1 11 C-1 9.68 -1 8.36 -1 7 C-2.32 7 -3.64 7 -5 7 C-5 5.68 -5 4.36 -5 3 C-3.35 3 -1.7 3 0 3 C0 2.01 0 1.02 0 0 Z " fill="#F9FCF7" transform="translate(28,119)"/>
<path d="M0 0 C-0.33 0.99 -0.66 1.98 -1 3 C-2.43793392 2.68950274 -3.8753318 2.3765224 -5.3125 2.0625 C-6.11300781 1.88847656 -6.91351563 1.71445313 -7.73828125 1.53515625 C-10 1 -10 1 -13 0 C-25.13261738 -0.58618264 -35.20788957 0.02163667 -46 6 C-46.99 6.495 -46.99 6.495 -48 7 C-48.66 6.34 -49.32 5.68 -50 5 C-33.9625544 -3.30397381 -17.51966148 -6.11913332 0 0 Z " fill="#4F595D" transform="translate(160,89)"/>
<path d="M0 0 C3.375 0.5 3.375 0.5 5.3125 1.75 C6.375 3.5 6.375 3.5 6.375 7.5 C5.818125 7.149375 5.26125 6.79875 4.6875 6.4375 C1.83613217 5.28154007 0.28982778 5.69032562 -2.625 6.5 C-3.42453138 9.78696233 -3.72158936 11.21023192 -2.625 14.5 C-5 14.1875 -5 14.1875 -7.625 13.5 C-9.625 10.5 -9.625 10.5 -9.5625 8.125 C-7.77691792 3.12537018 -5.27400202 0.72744855 0 0 Z " fill="#F9FCF6" transform="translate(228.625,67.5)"/>
<path d="M0 0 C0.66 0 1.32 0 2 0 C1.98839844 1.04800781 1.97679688 2.09601563 1.96484375 3.17578125 C1.95546345 4.55468572 1.9463635 5.93359211 1.9375 7.3125 C1.92912109 8.00279297 1.92074219 8.69308594 1.91210938 9.40429688 C1.89692094 12.5483025 1.99806673 14.99420019 3 18 C3.0685495 19.89470816 3.08480372 21.7916834 3.0625 23.6875 C3.05347656 24.68136719 3.04445313 25.67523438 3.03515625 26.69921875 C3.02355469 27.45847656 3.01195313 28.21773437 3 29 C-1.76370678 24.23629322 -3.26868129 16.67338885 -3.4375 10.125 C-3.27995371 6.04630159 -2.81880608 3.14405294 0 0 Z " fill="#1C2B31" transform="translate(90,124)"/>
<path d="M0 0 C0.33 1.32 0.66 2.64 1 4 C-14.55932203 9.40254237 -14.55932203 9.40254237 -21 9 C-21.33 7.68 -21.66 6.36 -22 5 C-18.89743488 4.1606242 -15.79270556 3.3295495 -12.6875 2.5 C-11.80642578 2.26152344 -10.92535156 2.02304688 -10.01757812 1.77734375 C-9.17001953 1.55175781 -8.32246094 1.32617188 -7.44921875 1.09375 C-6.27879028 0.77954102 -6.27879028 0.77954102 -5.0847168 0.45898438 C-3 0 -3 0 0 0 Z " fill="#243237" transform="translate(205,115)"/>
<path d="M0 0 C0.33 1.32 0.66 2.64 1 4 C-1.56076097 4.67404284 -4.12326583 5.339414 -6.6875 6 C-7.40873047 6.19078125 -8.12996094 6.3815625 -8.87304688 6.578125 C-12.66850961 7.54865428 -16.04615439 8.24955239 -20 8 C-20.33 6.68 -20.66 5.36 -21 4 C-18.43923903 3.32595716 -15.87673417 2.660586 -13.3125 2 C-12.59126953 1.80921875 -11.87003906 1.6184375 -11.12695312 1.421875 C-7.33149039 0.45134572 -3.95384561 -0.24955239 0 0 Z " fill="#253439" transform="translate(202,109)"/>
<path d="M0 0 C0 3.71488123 -0.91663018 4.44603459 -3.25 7.25 C-7.15698101 12.1179723 -10.1669697 16.90137298 -12.5625 22.6875 C-13.80440877 25.54928977 -14.89764842 27.71483524 -17 30 C-17.66 30 -18.32 30 -19 30 C-14.54179006 18.44001845 -9.69522208 8.07935173 0 0 Z " fill="#D3D5D7" transform="translate(208,125)"/>
<path d="M0 0 C0.33 1.32 0.66 2.64 1 4 C-2.29070841 4.83714909 -5.58271647 5.66906896 -8.875 6.5 C-10.28072266 6.85771484 -10.28072266 6.85771484 -11.71484375 7.22265625 C-12.61074219 7.44824219 -13.50664062 7.67382812 -14.4296875 7.90625 C-15.25710449 8.11572266 -16.08452148 8.32519531 -16.93701172 8.54101562 C-19 9 -19 9 -21 9 C-21 13.62 -21 18.24 -21 23 C-21.33 23 -21.66 23 -22 23 C-22 17.39 -22 11.78 -22 6 C-20.57945312 5.65066406 -19.15890625 5.30132812 -17.6953125 4.94140625 C-15.83851099 4.48189477 -13.98174183 4.02225258 -12.125 3.5625 C-11.18785156 3.33240234 -10.25070313 3.10230469 -9.28515625 2.86523438 C-8.38925781 2.64287109 -7.49335938 2.42050781 -6.5703125 2.19140625 C-5.32918701 1.88505249 -5.32918701 1.88505249 -4.06298828 1.57250977 C-1.96004845 1.05992006 -1.96004845 1.05992006 0 0 Z " fill="#D5D7D9" transform="translate(206,118)"/>
<path d="M0 0 C0.66 0.99 1.32 1.98 2 3 C1.67386719 3.47308594 1.34773438 3.94617188 1.01171875 4.43359375 C-5.31568889 14.00869734 -6.52946076 22.59347988 -7 34 C-7.33 34 -7.66 34 -8 34 C-8.22786458 32.046875 -8.45572917 30.09375 -8.68359375 28.140625 C-8.94562493 26.00381794 -8.94562493 26.00381794 -9.6015625 24.01953125 C-11.1143745 16.35165082 -4.7787166 7.23375104 -1 1 C-0.67 0.67 -0.34 0.34 0 0 Z " fill="#D1D3D5" transform="translate(94,105)"/>
<path d="M0 0 C2.47374569 2.40503053 4.80226604 4.73635472 6.875 7.5 C9.58532633 10.68861921 12.53179362 12.66563032 16 15 C15.67 15.99 15.34 16.98 15 18 C11.08555184 16.67699836 8.73244786 15.09450464 5.875 12.125 C4.88113281 11.10792969 4.88113281 11.10792969 3.8671875 10.0703125 C2.09815274 8.10883044 0.45193371 6.20767208 -1 4 C-0.6875 1.75 -0.6875 1.75 0 0 Z " fill="#DBDCDE" transform="translate(93,160)"/>
<path d="M0 0 C0.99 0 1.98 0 3 0 C3 0.66 3 1.32 3 2 C3.66 2 4.32 2 5 2 C5.33 4.97 5.66 7.94 6 11 C6.66 11 7.32 11 8 11 C8 11.66 8 12.32 8 13 C7.34 13 6.68 13 6 13 C6 13.66 6 14.32 6 15 C4.68 15 3.36 15 2 15 C0.73694665 9.92523206 -0.27036084 5.27203646 0 0 Z " fill="#FBFDFA" transform="translate(154,243)"/>
<path d="M0 0 C4.29 0.33 8.58 0.66 13 1 C13 2.32 13 3.64 13 5 C5.08 5.495 5.08 5.495 -3 6 C-3 4.68 -3 3.36 -3 2 C-2.01 2 -1.02 2 0 2 C0 1.34 0 0.68 0 0 Z " fill="#FAFCF8" transform="translate(248,139)"/>
<path d="M0 0 C8.25 0 16.5 0 25 0 C24.01 0.33 23.02 0.66 22 1 C22 1.66 22 2.32 22 3 C15.07 3 8.14 3 1 3 C0.67 2.01 0.34 1.02 0 0 Z " fill="#EFF0F1" transform="translate(129,185)"/>
<path d="M0 0 C1.07765625 0.10183594 2.1553125 0.20367187 3.265625 0.30859375 C4.08546875 0.39238281 4.9053125 0.47617188 5.75 0.5625 C5.75 1.8825 5.75 3.2025 5.75 4.5625 C0.47 4.5625 -4.81 4.5625 -10.25 4.5625 C-10.25 3.2425 -10.25 1.9225 -10.25 0.5625 C-6.70049966 -0.60056443 -3.69176052 -0.36115049 0 0 Z " fill="#F9FBF7" transform="translate(35.25,145.4375)"/>
<path d="M0 0 C0 0.33 0 0.66 0 1 C-2.56076097 1.67404284 -5.12326583 2.339414 -7.6875 3 C-8.40873047 3.19078125 -9.12996094 3.3815625 -9.87304688 3.578125 C-13.66850961 4.54865428 -17.04615439 5.24955239 -21 5 C-21.33 5.99 -21.66 6.98 -22 8 C-22 6.68 -22 5.36 -22 4 C-22.66 4 -23.32 4 -24 4 C-23.67 3.34 -23.34 2.68 -23 2 C-21.1111733 1.73016761 -19.2194434 1.47284936 -17.3203125 1.2890625 C-14.93559081 0.99197596 -12.70262297 0.46676855 -10.375 -0.125 C-6.63692929 -1.00607039 -3.77105512 -0.96693721 0 0 Z " fill="#CBCED0" transform="translate(202,108)"/>
<path d="M0 0 C2.625 0.375 2.625 0.375 5 1 C4.67 3.31 4.34 5.62 4 8 C1.625 8.625 1.625 8.625 -1 9 C-1.66 8.34 -2.32 7.68 -3 7 C-2.67028521 3.70285207 -2.3773161 2.3773161 0 0 Z " fill="#99C971" transform="translate(180,39)"/>
<path d="M0 0 C4.70588235 0.70588235 4.70588235 0.70588235 6 2 C6.125 5 6.125 5 6 8 C5 9 5 9 2.4375 9.0625 C1.633125 9.041875 0.82875 9.02125 0 9 C-1.36623674 6.26752652 -1.128426 4.01801098 -1 1 C-0.67 0.67 -0.34 0.34 0 0 Z " fill="#95C66C" transform="translate(160,245)"/>
<path d="M0 0 C2.4375 0.25 2.4375 0.25 5 1 C7 4 7 4 6.625 6.1875 C6.41875 6.785625 6.2125 7.38375 6 8 C4.1875 8.6875 4.1875 8.6875 2 9 C0.25 7.875 0.25 7.875 -1 6 C-1.25 3.375 -1.25 3.375 -1 1 C-0.67 0.67 -0.34 0.34 0 0 Z " fill="#9BCB73" transform="translate(212,221)"/>
<path d="M0 0 C3.5624308 -0.05827558 7.12473819 -0.09368885 10.6875 -0.125 C12.19860352 -0.15013672 12.19860352 -0.15013672 13.74023438 -0.17578125 C14.71669922 -0.18222656 15.69316406 -0.18867187 16.69921875 -0.1953125 C17.59471436 -0.20578613 18.49020996 -0.21625977 19.4128418 -0.22705078 C22.26168257 0.02296544 24.40894543 0.81983488 27 2 C27 2.33 27 2.66 27 3 C18.09 2.67 9.18 2.34 0 2 C0 1.34 0 0.68 0 0 Z " fill="#E4E6E7" transform="translate(129,84)"/>
<path d="M0 0 C0.86625 0.3403125 0.86625 0.3403125 1.75 0.6875 C2.4375 2.5 2.4375 2.5 2.75 4.6875 C1.625 6.4375 1.625 6.4375 -0.25 7.6875 C-2.9375 7.875 -2.9375 7.875 -5.25 7.6875 C-5.58 6.0375 -5.91 4.3875 -6.25 2.6875 C-2.80384615 -0.38942308 -2.80384615 -0.38942308 0 0 Z " fill="#9ACB72" transform="translate(230.25,72.3125)"/>
<path d="M0 0 C-12.5985082 8.4771877 -12.5985082 8.4771877 -18.171875 7.6953125 C-20 7 -20 7 -21 5 C-20.13117188 4.73445312 -19.26234375 4.46890625 -18.3671875 4.1953125 C-17.21476563 3.84210938 -16.06234375 3.48890625 -14.875 3.125 C-13.73804688 2.77695313 -12.60109375 2.42890625 -11.4296875 2.0703125 C-9.16880007 1.36475082 -6.92252153 0.61027374 -4.6953125 -0.1953125 C-2 -1 -2 -1 0 0 Z " fill="#E0E2E3" transform="translate(171,179)"/>
<path d="M0 0 C2.31 0.33 4.62 0.66 7 1 C7.38218767 2.65614657 7.71395102 4.32457024 8 6 C7 7 7 7 4.0625 7.1875 C1 7 1 7 -1 5 C-0.625 2.375 -0.625 2.375 0 0 Z " fill="#8BBD61" transform="translate(36,105)"/>
<path d="M0 0 C0.33 1.65 0.66 3.3 1 5 C-2 7 -2 7 -4.6875 6.625 C-5.450625 6.41875 -6.21375 6.2125 -7 6 C-7.33 4.35 -7.66 2.7 -8 1 C-5.29120665 -0.35439668 -2.99066732 -0.06501451 0 0 Z " fill="#8BBD62" transform="translate(39,162)"/>
<path d="M0 0 C5.64496665 1.17457381 9.92938792 2.74436984 14.765625 5.8984375 C14.765625 6.8884375 14.765625 7.8784375 14.765625 8.8984375 C10.28258463 7.42248267 5.83346025 5.86615202 1.390625 4.2734375 C0.42962891 3.92925781 0.42962891 3.92925781 -0.55078125 3.578125 C-2.11218905 3.01881474 -3.67331201 2.45870942 -5.234375 1.8984375 C-2.234375 -0.1015625 -2.234375 -0.1015625 0 0 Z " fill="#D2D4D6" transform="translate(158.234375,86.1015625)"/>
<path d="M0 0 C-3.37563958 2.25042639 -6.05543846 2.9126469 -10 3.8125 C-11.2375 4.10769531 -12.475 4.40289062 -13.75 4.70703125 C-17 5 -17 5 -18.9375 3.57421875 C-19.288125 3.05472656 -19.63875 2.53523438 -20 2 C-17.79496964 1.46535565 -15.58577828 0.94785565 -13.375 0.4375 C-12.14523438 0.14746094 -10.91546875 -0.14257812 -9.6484375 -0.44140625 C-6.06141357 -0.99059728 -3.50902871 -0.81517436 0 0 Z " fill="#B2B6B9" transform="translate(202,115)"/>
<path d="M0 0 C1.74216797 0.02707031 1.74216797 0.02707031 3.51953125 0.0546875 C4.39996094 0.07789063 5.28039062 0.10109375 6.1875 0.125 C6.1875 0.455 6.1875 0.785 6.1875 1.125 C0.7425 1.62 0.7425 1.62 -4.8125 2.125 C0.7975 2.455 6.4075 2.785 12.1875 3.125 C12.1875 3.455 12.1875 3.785 12.1875 4.125 C8.93757554 4.18319424 5.68778565 4.21866116 2.4375 4.25 C1.51710937 4.26675781 0.59671875 4.28351563 -0.3515625 4.30078125 C-1.24101562 4.30722656 -2.13046875 4.31367188 -3.046875 4.3203125 C-4.27229004 4.33602295 -4.27229004 4.33602295 -5.52246094 4.35205078 C-8.03137518 4.10329916 -9.64645625 3.38200129 -11.8125 2.125 C-7.73526266 0.17468308 -4.49557578 -0.09081971 0 0 Z " fill="#404C51" transform="translate(137.8125,180.875)"/>
<path d="M0 0 C0 0.99 0 1.98 0 3 C-5.94 3 -11.88 3 -18 3 C-17.67 2.34 -17.34 1.68 -17 1 C-14.70703125 0.5859375 -14.70703125 0.5859375 -11.8125 0.375 C-10.8225 0.30152344 -9.8325 0.22804687 -8.8125 0.15234375 C-5.86903353 -0.00709402 -2.94718731 -0.07965371 0 0 Z " fill="#102126" transform="translate(150,181)"/>
<path d="M0 0 C0.33 0.99 0.66 1.98 1 3 C-0.58203125 5.91796875 -0.58203125 5.91796875 -2.8125 9.1875 C-3.54082031 10.27417969 -4.26914063 11.36085937 -5.01953125 12.48046875 C-5.67308594 13.31191406 -6.32664063 14.14335937 -7 15 C-7.66 15 -8.32 15 -9 15 C-8.37394031 11.26972769 -6.69298393 8.85481583 -4.5 5.8125 C-3.8709375 4.93207031 -3.241875 4.05164063 -2.59375 3.14453125 C-1 1 -1 1 0 0 Z " fill="#E0E2E3" transform="translate(190,154)"/>
<path d="M0 0 C0.33 1.32 0.66 2.64 1 4 C-0.45505358 4.52992692 -1.91418127 5.0486789 -3.375 5.5625 C-4.59316406 5.99755859 -4.59316406 5.99755859 -5.8359375 6.44140625 C-8 7 -8 7 -10 6 C-9.34 5.01 -8.68 4.02 -8 3 C-7.34 3 -6.68 3 -6 3 C-6 2.34 -6 1.68 -6 1 C-3 0 -3 0 0 0 Z " fill="#243338" transform="translate(205,115)"/>
<path d="M0 0 C6.09781001 -0.22084624 11.21642935 -0.01167675 17 2 C16.67 2.99 16.34 3.98 16 5 C10.60204011 3.84941444 5.29012667 2.57578241 0 1 C0 0.67 0 0.34 0 0 Z " fill="#354246" transform="translate(143,87)"/>
<path d="M0 0 C0.66 0 1.32 0 2 0 C2 0.66 2 1.32 2 2 C2.99 2.33 3.98 2.66 5 3 C4.49396008 5.16874252 4.00016187 6.99967627 3 9 C2.34 9 1.68 9 1 9 C0.67 8.34 0.34 7.68 0 7 C-0.99 7.495 -0.99 7.495 -2 8 C-1.67 7.01 -1.34 6.02 -1 5 C-1.66 4.34 -2.32 3.68 -3 3 C-2.01 3 -1.02 3 0 3 C0 2.01 0 1.02 0 0 Z " fill="#E5F0DC" transform="translate(51,215)"/>
<path d="M0 0 C1.65 0.33 3.3 0.66 5 1 C5 2.65 5 4.3 5 6 C4.34 6 3.68 6 3 6 C3 6.66 3 7.32 3 8 C2.34 8 1.68 8 1 8 C0.67 7.34 0.34 6.68 0 6 C-0.99 6.495 -0.99 6.495 -2 7 C-2.33 5.35 -2.66 3.7 -3 2 C-2.01 2 -1.02 2 0 2 C0 1.34 0 0.68 0 0 Z " fill="#EDF6E6" transform="translate(254,181)"/>
<path d="M0 0 C0.33 1.32 0.66 2.64 1 4 C-4.07476794 5.26305335 -8.72796354 6.27036084 -14 6 C-14 5.34 -14 4.68 -14 4 C-13.15695313 3.79503906 -12.31390625 3.59007813 -11.4453125 3.37890625 C-10.34960938 3.10949219 -9.25390625 2.84007813 -8.125 2.5625 C-7.03445312 2.29566406 -5.94390625 2.02882813 -4.8203125 1.75390625 C-2.07515279 1.1213522 -2.07515279 1.1213522 0 0 Z " fill="#DCDEDF" transform="translate(206,118)"/>
<path d="M0 0 C0 0.33 0 0.66 0 1 C-2.45959639 1.50066883 -4.92004572 1.99558974 -7.3828125 2.48046875 C-9.42546736 2.88595098 -11.46371509 3.31365323 -13.5 3.75 C-14.7375 3.87375 -14.7375 3.87375 -16 4 C-16.66 3.34 -17.32 2.68 -18 2 C-11.53261488 -0.99415978 -6.99272215 -1.18933594 0 0 Z " fill="#CED0D2" transform="translate(134,86)"/>
<path d="M0 0 C1.65 0.33 3.3 0.66 5 1 C4.67 1.66 4.34 2.32 4 3 C4.66 3.33 5.32 3.66 6 4 C6 4.66 6 5.32 6 6 C5.34 6 4.68 6 4 6 C3.67 6.66 3.34 7.32 3 8 C1.35 7.67 -0.3 7.34 -2 7 C-2 5.35 -2 3.7 -2 2 C-1.34 2 -0.68 2 0 2 C0 1.34 0 0.68 0 0 Z " fill="#EAF4E3" transform="translate(119,26)"/>
<path d="M0 0 C-0.90363281 0.33773437 -1.80726562 0.67546875 -2.73828125 1.0234375 C-3.91777344 1.46945313 -5.09726563 1.91546875 -6.3125 2.375 C-8.07013672 3.03628906 -8.07013672 3.03628906 -9.86328125 3.7109375 C-13.08553593 4.91489648 -13.08553593 4.91489648 -16 7 C-16.66 6.34 -17.32 5.68 -18 5 C-16.41925436 4.18247697 -14.83528777 3.37118003 -13.25 2.5625 C-12.36828125 2.11003906 -11.4865625 1.65757813 -10.578125 1.19140625 C-6.60350194 -0.64535138 -4.23358979 -1.36079672 0 0 Z " fill="#3E494E" transform="translate(128,89)"/>
<path d="M0 0 C0.99 0.33 1.98 0.66 3 1 C1.7580393 4.43927579 0.44259716 7.25207819 -2 10 C-2.66 10 -3.32 10 -4 10 C-2.66666667 6.66666667 -1.33333333 3.33333333 0 0 Z " fill="#CBCDCF" transform="translate(193,145)"/>
<path d="M0 0 C2.31 0 4.62 0 7 0 C6.67 1.32 6.34 2.64 6 4 C4.35 4 2.7 4 1 4 C0.67 2.68 0.34 1.36 0 0 Z " fill="#1B2A2F" transform="translate(181,113)"/>
<path d="M0 0 C0.33 1.32 0.66 2.64 1 4 C-0.65 4 -2.3 4 -4 4 C-4.33 3.34 -4.66 2.68 -5 2 C-5.99 1.34 -6.98 0.68 -8 0 C-4.94736336 -0.98120464 -3.05263664 -0.98120464 0 0 Z " fill="#2C3B3F" transform="translate(154,180)"/>
<path d="M0 0 C1.32 0.33 2.64 0.66 4 1 C1.36 2.98 -1.28 4.96 -4 7 C-3.6875 4.625 -3.6875 4.625 -3 2 C-2.01 1.34 -1.02 0.68 0 0 Z " fill="#2B393E" transform="translate(108,95)"/>
<path d="M0 0 C1.5577226 3.03820277 2.82702096 5.54041926 3 9 C1.0625 11.3125 1.0625 11.3125 -1 13 C-0.83628906 12.43796875 -0.67257813 11.8759375 -0.50390625 11.296875 C0.02864997 8.86940944 0.09898681 6.73110319 0.0625 4.25 C0.05347656 3.45078125 0.04445313 2.6515625 0.03515625 1.828125 C0.02355469 1.22484375 0.01195313 0.6215625 0 0 Z " fill="#3F4C51" transform="translate(93,146)"/>
<path d="M0 0 C-1.75 2 -1.75 2 -4 4 C-5.32 4 -6.64 4 -8 4 C-7.6875 2.0625 -7.6875 2.0625 -7 0 C-3.86650268 -1.04449911 -3.01031744 -0.93423645 0 0 Z " fill="#15252A" transform="translate(199,118)"/>
<path d="M0 0 C0.33 0 0.66 0 1 0 C1 3.63 1 7.26 1 11 C-1.79908133 8.20091867 -1.72362983 5.86918237 -2 2 C-1.34 1.34 -0.68 0.68 0 0 Z " fill="#28363B" transform="translate(92,142)"/>
<path d="M0 0 C-3.08888522 2.05925681 -3.70935927 2.2390374 -7.1875 2.125 C-9.0746875 2.063125 -9.0746875 2.063125 -11 2 C-10 0 -10 0 -8.3125 -0.6875 C-5.37519398 -1.08443325 -2.88840266 -0.59080963 0 0 Z " fill="#D0D3D5" transform="translate(202,115)"/>
<path d="M0 0 C2.64 0 5.28 0 8 0 C7.01 0.33 6.02 0.66 5 1 C5 1.66 5 2.32 5 3 C3.02 3 1.04 3 -1 3 C-0.67 2.01 -0.34 1.02 0 0 Z " fill="#F0F0F1" transform="translate(146,185)"/>
<path d="M0 0 C1.65 0 3.3 0 5 0 C5.33 0.99 5.66 1.98 6 3 C4.02 3.33 2.04 3.66 0 4 C0 2.68 0 1.36 0 0 Z " fill="#27363A" transform="translate(194,104)"/>
<path d="M0 0 C2.97 0.495 2.97 0.495 6 1 C5.67 2.32 5.34 3.64 5 5 C2.525 4.01 2.525 4.01 0 3 C0 2.01 0 1.02 0 0 Z " fill="#203035" transform="translate(159,90)"/>
<path d="M0 0 C0.66 0 1.32 0 2 0 C1.50168276 3.68754757 0.89932357 5.60490662 -2 8 C-1.125 2.25 -1.125 2.25 0 0 Z " fill="#DEE0E1" transform="translate(196,139)"/>
<path d="M0 0 C3.3 0.33 6.6 0.66 10 1 C10 1.66 10 2.32 10 3 C5.06071112 3.3367697 4.21507278 3.16130459 0 0 Z " fill="#E1E3E4" transform="translate(188,101)"/>
<path d="M0 0 C1.65 0 3.3 0 5 0 C5 0.99 5 1.98 5 3 C3.35 3 1.7 3 0 3 C0 2.01 0 1.02 0 0 Z " fill="#18282D" transform="translate(125,180)"/>
<path d="M0 0 C0.99 0.33 1.98 0.66 3 1 C2.34 2.32 1.68 3.64 1 5 C0.01 5 -0.98 5 -2 5 C-2 3.68 -2 2.36 -2 1 C-1.34 0.67 -0.68 0.34 0 0 Z " fill="#A3D17E" transform="translate(249,154)"/>
<path d="M0 0 C0 1.65 0 3.3 0 5 C-1.65 4.67 -3.3 4.34 -5 4 C-5 3.01 -5 2.02 -5 1 C-2 0 -2 0 0 0 Z " fill="#1C2C31" transform="translate(192,118)"/>
</svg>
